<svg width="16" height="16" viewBox="0 0 16 16" fill="none" xmlns="http://www.w3.org/2000/svg">
<path fill-rule="evenodd" clip-rule="evenodd" d="M7.84928 9.91887C7.54342 9.72969 6.25281 8.93458 6.25281 8.93458C6.25281 8.93458 4.9628 8.1382 4.65652 7.9498C4.62727 7.93181 4.58989 7.95211 4.58826 7.98664C4.58489 8.0588 4.57989 8.1644 4.57718 8.22337C4.57592 8.252 4.58314 8.28003 4.59825 8.30428C4.66573 8.41274 4.86456 8.7322 4.96473 8.89336C5.00247 8.95416 5.01373 9.0279 4.99585 9.09732L4.73695 10.1031C4.72659 10.1435 4.74074 10.186 4.77312 10.212C4.90658 10.3189 5.07152 10.4365 5.27041 10.5591C5.46917 10.6818 5.6482 10.7763 5.80332 10.8473C5.84095 10.8645 5.88489 10.8578 5.91565 10.8301L6.68346 10.1382C6.73649 10.0904 6.80656 10.0668 6.87735 10.073C7.06498 10.0893 7.43699 10.122 7.56347 10.1331C7.59182 10.1356 7.61999 10.1293 7.64461 10.115C7.69536 10.0856 7.78607 10.033 7.84802 9.99705C7.87769 9.97985 7.87847 9.93693 7.84928 9.91887Z" fill="#7A7A7A"/>
<path fill-rule="evenodd" clip-rule="evenodd" d="M5.679 11.1912C5.66574 11.1105 5.61445 11.0411 5.54134 11.0047C5.33655 10.9026 5.17371 10.8049 5.12917 10.7777C5.08463 10.7505 4.92335 10.6502 4.73899 10.5145C4.67324 10.4661 4.58808 10.4522 4.51033 10.4772L4.46586 10.4915C4.15698 10.591 3.91898 10.8391 3.83268 11.1521C3.62114 11.9191 3.22288 13.3633 3.04383 14.0126C3.01749 14.108 3.13236 14.1781 3.2051 14.1112C3.70069 13.6553 4.803 12.6412 5.38838 12.1025C5.62723 11.8828 5.7392 11.5576 5.68653 11.2373L5.679 11.1912Z" fill="#7A7A7A"/>
<path fill-rule="evenodd" clip-rule="evenodd" d="M13.069 2.45806C13.1627 2.33326 13.1065 2.23873 13.0646 2.20002L13.0645 2.1999C13.0203 2.16507 12.9666 2.14026 12.9048 2.13085L11.5467 1.92389C11.4207 1.90472 11.2946 1.95727 11.2189 2.06035L10.4778 3.07038C10.3638 3.22571 10.4029 3.43042 10.5357 3.54048C10.5453 3.54861 10.548 3.56281 10.5413 3.57391C10.5357 3.58307 10.525 3.5875 10.515 3.58598L9.62643 3.45056C9.48316 3.42878 9.33971 3.48842 9.25372 3.6057L7.08747 6.55826C7.05928 6.59666 7.00666 6.60716 6.96604 6.58253L4.88072 5.31633C4.74282 5.2326 4.56286 5.2792 4.48266 5.42081C4.4045 5.55878 4.46003 5.7354 4.59515 5.81749L4.64904 5.8502C4.67571 5.86634 4.69008 5.89704 4.68543 5.92804L4.62212 6.34997C4.61609 6.3905 4.57101 6.41173 4.53619 6.39056C4.53619 6.39056 4.23872 6.21278 4.23112 6.20811C3.98447 6.05631 3.66208 6.13427 3.51109 6.38224C3.37663 6.6031 3.42376 6.88395 3.60976 7.05008C3.61549 7.05529 3.66945 7.09704 3.68339 7.10559C3.68369 7.10578 3.68399 7.10602 3.68429 7.10614L3.68441 7.10626L5.24222 8.06508C6.08427 8.57638 6.72434 8.15713 6.92416 8.00678C7.10153 7.87329 7.30303 7.72592 7.63918 7.93112C7.75964 8.00471 7.91172 8.00198 8.03302 7.92972L8.42083 7.69874C8.53525 7.6306 8.67774 7.63121 8.79168 7.70031L9.9729 8.4176C10.0193 8.44575 10.0794 8.4338 10.1116 8.38993L12.9988 4.46084C13.2343 4.14509 13.06 3.99153 12.9166 3.95379C12.9073 3.95166 12.8983 3.94905 12.8888 3.9476L12.1964 3.84215C12.1862 3.84051 12.1759 3.83614 12.1665 3.83038C12.1281 3.80684 12.116 3.75623 12.1395 3.71759C12.3742 3.39887 13.069 2.45806 13.069 2.45806Z" fill="#7A7A7A"/>
</svg>
